<svg class="svg-icon" style="width: 1.33203125em; height: 1em;vertical-align: middle;fill: currentColor;overflow: hidden;" viewBox="0 0 1364 1024" version="1.1" xmlns="http://www.w3.org/2000/svg"><path d="M1052.173802 853.122709H609.379254l121.682478 121.398107a28.721501 28.721501 0 1 1-40.636658 40.579784l-170.622779-170.338407a29.517741 29.517741 0 0 1 0-41.176964l170.622779-170.30997a28.721501 28.721501 0 0 1 40.636658 40.579784l-122.990586 122.706215h442.311117c0.625617 0 1.165922-0.369683 1.791539-0.369683a255.934168 255.934168 0 0 0 0-511.868336 264.721241 264.721241 0 0 0-27.83995 1.564042 369.682687 369.682687 0 0 0-683.685474 0A264.721241 264.721241 0 0 0 312.808428 284.380113a255.934168 255.934168 0 0 0 0 511.868336 28.43713 28.43713 0 0 1 0 56.87426 312.666242 312.666242 0 0 1-7.621151-625.218735 426.272575 426.272575 0 0 1 754.607676 0A312.666242 312.666242 0 0 1 1052.173802 853.122709z"  /></svg>